<svg xmlns="http://www.w3.org/2000/svg" viewBox="0 0 130.65 130.69"><defs><style>.cls-1{fill:#fafafa;}</style></defs><g id="Layer_2" data-name="Layer 2"><g id="Layer_1-2" data-name="Layer 1"><path class="cls-1" d="M72.21,66.92q-3-6.84-6-13C39.49,61.77,11.78,63.54,0,63.92c0,.48,0,1,0,1.43A65,65,0,0,0,15.87,108C24,97.64,43.21,77,72.21,66.92Z"/><path class="cls-1" d="M77.89,50Q81,56.47,84,63.57a107.76,107.76,0,0,1,46.66.22,65,65,0,0,0-14-38.81C107.17,36.28,93.14,44.32,77.89,50Z"/><path class="cls-1" d="M24.53,116.32a65.18,65.18,0,0,0,66.08,9.28A294.11,294.11,0,0,0,76.67,77.86C48.83,87.12,31.18,107.45,24.53,116.32Z"/><path class="cls-1" d="M88.49,74.81a310.32,310.32,0,0,1,13.21,44.81A65.48,65.48,0,0,0,129.81,76,98.32,98.32,0,0,0,88.49,74.81Z"/><path class="cls-1" d="M37.27,6.35A65.54,65.54,0,0,0,1.43,51.78c11.64-.51,35.89-2.34,59.22-8.8A268.35,268.35,0,0,0,37.27,6.35Z"/><path class="cls-1" d="M108.34,16.2A65.23,65.23,0,0,0,49.17,2,280.08,280.08,0,0,1,72.46,39.24C87,34,100.14,26.62,108.34,16.2Z"/></g></g></svg>