<svg xmlns="http://www.w3.org/2000/svg" viewBox="0 0 130.69 130.69"><defs><style>.cls-1{fill:#fafafa;}</style></defs><g id="Layer_2" data-name="Layer 2"><g id="Layer_1-2" data-name="Layer 1"><path class="cls-1" d="M65.35,44.75a20.6,20.6,0,1,0,20.59,20.6A20.62,20.62,0,0,0,65.35,44.75Z"/><path class="cls-1" d="M100.15,0H30.54A30.57,30.57,0,0,0,0,30.54v69.61a30.57,30.57,0,0,0,30.54,30.54h69.61a30.57,30.57,0,0,0,30.54-30.54V30.54A30.57,30.57,0,0,0,100.15,0ZM65.35,103.48a38.13,38.13,0,1,1,38.13-38.13A38.18,38.18,0,0,1,65.35,103.48ZM108.07,33.3A11.31,11.31,0,1,1,119.38,22,11.31,11.31,0,0,1,108.07,33.3Z"/></g></g></svg>