<svg xmlns="http://www.w3.org/2000/svg" viewBox="0 0 130.69 130.69"><defs><style>.cls-1{fill:#fafafa;}</style></defs><g id="Layer_2" data-name="Layer 2"><g id="Layer_1-2" data-name="Layer 1"><path class="cls-1" d="M100.15,0H30.54A30.57,30.57,0,0,0,0,30.54v69.61a30.57,30.57,0,0,0,30.54,30.54h69.61a30.57,30.57,0,0,0,30.54-30.54V30.54A30.57,30.57,0,0,0,100.15,0Zm5.33,51.55c-2,26.82-17.73,40.15-17.73,40.15-36.12,32.83-73.28,8.54-73.28,8.54,22.46-1.58,28.9-9.72,28.9-9.72C27.94,88.68,23.9,76,23.9,76c2.72.46,7.52-.83,7.52-.83-17.21-7.35-14.57-21-14.57-21A12.69,12.69,0,0,0,24.06,56c-12.61-12.6-4.85-28.63-4.85-28.63S32,47.58,63.52,49.75h.17a21.28,21.28,0,0,1,36.87-19.91c4.83-.06,12.9-3.84,12.9-3.84-1.91,6.1-7.6,10.55-7.95,10.82l10.71-2.45Z"/></g></g></svg>