<svg xmlns="http://www.w3.org/2000/svg" viewBox="0 0 225.8 225.8"><defs><style>.cls-1{fill:#fafafa;}.cls-2{fill:#020202;}</style></defs><g id="Layer_2" data-name="Layer 2"><g id="Layer_1-2" data-name="Layer 1"><path class="cls-1" d="M225.8,0V225.8H0C0,101.09,101.09,0,225.8,0Z"/><g id="Group_3" data-name="Group 3"><g id="Group_5" data-name="Group 5"><path id="Path_18" data-name="Path 18" class="cls-2" d="M93.36,149.86l11-11a5.75,5.75,0,0,1,8.11.15l5.56,5.56,1.09-.61a55.5,55.5,0,0,0,13.38-9.67,55.68,55.68,0,0,0,9.69-13.4c.2-.37.4-.73.6-1.07l-3.74-3.72-1.83-1.84a5.76,5.76,0,0,1-.15-8.12l11-11a5.73,5.73,0,0,1,8.11.15l3.11,3.13-.08.08a18.36,18.36,0,0,1,2.56,4.52,19,19,0,0,1,1.14,4.58c1.46,12.08-4.07,23.12-19,38.1-20.71,20.71-37.4,19.15-38.12,19.07a19.15,19.15,0,0,1-4.6-1.15,18.2,18.2,0,0,1-4.5-2.55l-.07.06L93.51,158A5.76,5.76,0,0,1,93.36,149.86Z"/></g></g></g></g></svg>