<svg xmlns="http://www.w3.org/2000/svg" viewBox="0 0 129.33 129.33"><defs><style>.cls-1{fill:#fafafa;}</style></defs><g id="Layer_2" data-name="Layer 2"><g id="Layer_1-2" data-name="Layer 1"><path class="cls-1" d="M64.66,0a64.67,64.67,0,1,0,64.67,64.66A64.66,64.66,0,0,0,64.66,0Zm43.41,30.57a54.9,54.9,0,0,1,11.81,32.79,91.17,91.17,0,0,0-39.44-.18c-1.69-4-3.43-7.82-5.16-11.45C88.17,46.9,100,40.12,108.07,30.57ZM64.68,9.44A55,55,0,0,1,101,23.14c-6.93,8.8-18,15-30.33,19.47A237.92,237.92,0,0,0,51,11.16,55,55,0,0,1,64.68,9.44ZM41,14.81a228.18,228.18,0,0,1,19.76,31c-19.71,5.46-40.22,7-50.06,7.44A55.43,55.43,0,0,1,41,14.81ZM9.44,64.68c0-.41,0-.8,0-1.2,9.93-.33,33.34-1.82,56-8.47,1.69,3.49,3.39,7.14,5,11C46,74.53,29.76,92,22.86,100.7A55,55,0,0,1,9.44,64.68Zm55.24,55.23a55,55,0,0,1-34.5-12.15c5.62-7.49,20.54-24.67,44.08-32.5A248.79,248.79,0,0,1,86,115.62,55.07,55.07,0,0,1,64.68,119.91Zm30.73-9.36A261.51,261.51,0,0,0,84.24,72.68a83.15,83.15,0,0,1,34.93,1A55.3,55.3,0,0,1,95.41,110.55Z"/></g></g></svg>