<svg xmlns="http://www.w3.org/2000/svg" viewBox="0 0 140.69 140.69"><defs><style>.cls-1{fill:#fafafa;}</style></defs><g id="Layer_2" data-name="Layer 2"><g id="Layer_1-2" data-name="Layer 1"><path class="cls-1" d="M105.15,5a30.57,30.57,0,0,1,30.54,30.54v69.61a30.57,30.57,0,0,1-30.54,30.54H35.54A30.57,30.57,0,0,1,5,105.15V35.54A30.57,30.57,0,0,1,35.54,5h69.61m0-5H35.54A35.58,35.58,0,0,0,0,35.54v69.61a35.58,35.58,0,0,0,35.54,35.54h69.61a35.58,35.58,0,0,0,35.54-35.54V35.54A35.58,35.58,0,0,0,105.15,0Z"/><path class="cls-1" d="M70.35,32.21a38.13,38.13,0,1,0,38.13,38.13A38.18,38.18,0,0,0,70.35,32.21Zm0,58.73a20.6,20.6,0,1,1,20.59-20.6A20.62,20.62,0,0,1,70.35,90.94Z"/><circle class="cls-1" cx="113.07" cy="26.99" r="11.31"/></g></g></svg>