<svg xmlns="http://www.w3.org/2000/svg" viewBox="0 0 130.69 130.69"><defs><style>.cls-1{fill:#fafafa;}</style></defs><g id="Layer_2" data-name="Layer 2"><g id="Layer_1-2" data-name="Layer 1"><path class="cls-1" d="M100.15,0H30.55A30.58,30.58,0,0,0,0,30.54v69.61a30.58,30.58,0,0,0,30.55,30.54h69.6a30.57,30.57,0,0,0,30.54-30.54V30.54A30.57,30.57,0,0,0,100.15,0ZM39.86,108.69H22.22V48.22H39.86ZM31,41.13a9.67,9.67,0,1,1,9.67-9.66A9.66,9.66,0,0,1,31,41.13Zm78.2,36.45v31.11H90.31V71.78a10,10,0,0,0-20,0v36.91H51.44V46.48H67.61l2.16,8S78.45,43.38,94.88,48,109.23,77.58,109.23,77.58Z"/></g></g></svg>