<svg xmlns="http://www.w3.org/2000/svg" viewBox="0 0 140.69 140.69"><defs><style>.cls-1{fill:#fafafa;}</style></defs><g id="Layer_2" data-name="Layer 2"><g id="Layer_1-2" data-name="Layer 1"><path class="cls-1" d="M105.15,5a30.57,30.57,0,0,1,30.54,30.54v69.61a30.57,30.57,0,0,1-30.54,30.54H35.55A30.58,30.58,0,0,1,5,105.15V35.54A30.58,30.58,0,0,1,35.55,5h69.6m0-5H35.55A35.58,35.58,0,0,0,0,35.54v69.61a35.58,35.58,0,0,0,35.55,35.54h69.6a35.58,35.58,0,0,0,35.54-35.54V35.54A35.58,35.58,0,0,0,105.15,0Z"/><rect class="cls-1" x="27.22" y="53.22" width="17.64" height="60.48"/><path class="cls-1" d="M36,46.13a9.67,9.67,0,1,1,9.67-9.66A9.66,9.66,0,0,1,36,46.13Z"/><path class="cls-1" d="M114.23,82.58v31.11H95.31V76.78a10,10,0,0,0-20,0v36.91H56.44V51.48H72.61l2.16,8S83.45,48.38,99.88,53,114.23,82.58,114.23,82.58Z"/></g></g></svg>