<svg xmlns="http://www.w3.org/2000/svg" viewBox="0 0 140.69 140.69"><defs><style>.cls-1{fill:#fafafa;}</style></defs><g id="Layer_2" data-name="Layer 2"><g id="Layer_1-2" data-name="Layer 1"><path class="cls-1" d="M105.15,5a30.57,30.57,0,0,1,30.54,30.54v69.61a30.57,30.57,0,0,1-30.54,30.54H35.54A30.57,30.57,0,0,1,5,105.15V35.54A30.57,30.57,0,0,1,35.54,5h69.61m0-5H35.54A35.58,35.58,0,0,0,0,35.54v69.61a35.58,35.58,0,0,0,35.54,35.54h69.61a35.58,35.58,0,0,0,35.54-35.54V35.54A35.58,35.58,0,0,0,105.15,0Z"/><path class="cls-1" d="M110.48,56.55c-2,26.82-17.73,40.15-17.73,40.15-36.12,32.83-73.28,8.54-73.28,8.54,22.46-1.58,28.9-9.72,28.9-9.72C32.94,93.68,28.9,81,28.9,81c2.72.46,7.52-.83,7.52-.83-17.21-7.35-14.57-21-14.57-21A12.69,12.69,0,0,0,29.06,61c-12.61-12.6-4.85-28.63-4.85-28.63S37,52.58,68.52,54.75h.17a21.28,21.28,0,0,1,36.87-19.91c4.83-.06,12.9-3.84,12.9-3.84-1.91,6.1-7.6,10.55-7.95,10.82l10.71-2.45Z"/></g></g></svg>